PathFileType	4	(X/Y/Z)	Patient3_R_KneeIso_Processed.trc
DataRate	CameraRate	NumFrames	NumMarkers	Units	OrigDataRate	OrigDataStartFrame	OrigNumFrames
100.000000000000	100.000000000000	4	33	mm	100.000000000000	38	       301
Frame#	Time	L.Toe			Neck			R.Toe			R.Shoulder			L.Wrist			L.Shank.Lateral			L.Elbow			R.Shank.Lateral			L.Shoulder			R.Midfoot.Lateral			L.Midfoot.Superior			R.Midfoot.Superior			R.Heel			R.Thigh.Lateral			L.Heel			R.Patella			L.Midfoot.Lateral			R.Elbow			R.Wrist			R.Shank.Inferior			Sternum			R.Thigh.Inferior			L.Shank.Inferior			R.Shank.Superior			L.Thigh.Superior			R.Thigh.Superior			R.Asis			L.Asis			L.Shank.Superior			L.Patella			Sacral			L.Thigh.Lateral			L.Thigh.Inferior			
		X1	Y1	Z1	X2	Y2	Z2	X3	Y3	Z3	X4	Y4	Z4	X5	Y5	Z5	X6	Y6	Z6	X7	Y7	Z7	X8	Y8	Z8	X9	Y9	Z9	X10	Y10	Z10	X11	Y11	Z11	X12	Y12	Z12	X13	Y13	Z13	X14	Y14	Z14	X15	Y15	Z15	X16	Y16	Z16	X17	Y17	Z17	X18	Y18	Z18	X19	Y19	Z19	X20	Y20	Z20	X21	Y21	Z21	X22	Y22	Z22	X23	Y23	Z23	X24	Y24	Z24	X25	Y25	Z25	X26	Y26	Z26	X27	Y27	Z27	X28	Y28	Z28	X29	Y29	Z29	X30	Y30	Z30	X31	Y31	Z31	X32	Y32	Z32	X33	Y33	Z33	

38	1.370000000000	650.019321032724	43.388778712794	367.261397615483	418.141470162339	1478.036741915836	355.699619232534	674.660693817865	62.598016359357	604.115393312022	458.212251784881	1457.701671060130	502.268957974625	513.935377951373	1066.353031405345	-44.282089711947	415.982765454977	322.106249391773	295.478223366148	317.557728539866	1130.405006196536	111.192584574675	492.032684932708	384.704551598098	642.550733943274	451.645630571459	1441.328575110746	209.564839593930	462.846717005684	57.152792220832	647.772242319557	531.491312357978	89.572670529780	389.506502975798	550.527806206273	112.110427918573	595.345599228291	376.234028720321	58.902112283698	587.066723892603	539.576550522128	689.731724207768	610.437438508207	363.448197796531	32.542670381564	437.767919737329	627.377451039981	510.044373173112	551.647173119887	434.804831326593	27.141170416968	364.966665993460	495.602950951122	1152.432422966627	674.141090608027	629.950951007745	1242.574412745475	480.349671448818	527.407972440397	237.944979349269	593.975347177791	559.691290306571	1388.726496250958	360.310648513493	623.783638585743	630.632047348586	544.940566999647	490.575281515476	229.212483277126	363.418305764911	579.739717057369	405.365239367742	584.829697190463	601.650312050002	726.355117169233	283.977786960078	617.238304420770	746.075540555741	545.928473881066	549.974661592584	997.649606280737	521.784899982949	561.556287247031	957.921925147507	260.799249413265	509.354644508405	380.454072809962	328.365506904953	553.358002321103	489.258252620423	336.498308983009	384.136095731905	993.220550300173	387.691880797350	497.039883258250	652.637777574462	252.173140717742	574.813297163089	601.378693476649	309.590033634769	
39	1.380000000000	650.022345859558	43.396076623639	367.263603816892	418.235783090360	1478.069418250646	355.599752728768	672.771757492137	62.042338397732	604.800135247844	458.302120327670	1457.729601336227	502.167534398830	513.960899993852	1066.380079042438	-44.313038377748	415.963640070425	322.113014095436	295.478052923014	317.541601749927	1130.462472681938	111.088336011908	491.603090950371	385.309369788238	642.598298976550	451.727052271778	1441.339837472064	209.464365802573	460.881878915734	57.756751141885	648.153054153286	531.494916558393	89.577905344743	389.501794489603	548.922570982313	112.204842769415	595.816177278138	374.353501816960	59.914885813598	587.332709963969	539.848160579007	689.797266512327	610.409119587901	363.448255902751	32.540870435029	437.770113996919	627.746768678859	510.059403757140	551.697953786076	434.806822064111	27.142081378230	364.968987384194	495.560902312701	1152.458332613727	674.070192946217	629.933105128112	1242.523286737458	480.259956665268	526.398051581823	238.246149331157	594.297094104235	559.743598668466	1388.699543721095	360.213670192189	624.070877076045	630.777385825075	544.895434894761	490.562903765053	229.221414100674	363.398710957208	579.533522702053	405.419106621066	585.016849594887	601.580446792302	726.385378439489	283.897736423172	617.419331840057	746.203234710612	545.835499547490	549.951189999683	997.684230190985	521.686780498204	561.408966237751	957.932405607778	260.707275456374	509.331681518544	380.451308202486	328.339413698839	553.352629582477	489.310240000141	336.459744107921	384.049647495240	993.231755600647	387.689082180913	497.002150430949	652.651462386210	252.139434914820	574.718642893681	601.439274463114	309.574939075070	
40	1.390000000000	650.025078382911	43.403593674028	367.265332468668	418.329490476431	1478.100226040766	355.497063904758	670.755181014577	61.458655370452	605.541765094281	458.396768771291	1457.758272398913	502.063177483311	513.972229622541	1066.403070151722	-44.348414513108	415.949628969241	322.118581517436	295.481414862127	317.518897429644	1130.512256173990	110.991573543756	491.140705644490	385.942543028917	642.633689240528	451.801642301438	1441.347343059971	209.361122636826	458.782627521351	58.407283776629	648.521201586951	531.498177698664	89.583364808872	389.497215598655	547.214685008730	112.312365046887	596.302884887357	372.362797395657	61.002695871080	587.558987900527	540.130351999541	689.860863797398	610.384149638488	363.447879548911	32.538197689436	437.773354541786	628.141754854611	510.062071217893	551.768014819167	434.808709447471	27.142595583501	364.971392406841	495.534752654361	1152.488739937474	674.001390926164	629.920953709760	1242.474955086934	480.163636310327	525.323168727425	238.568056377581	594.625044799226	559.794959063754	1388.670832484802	360.111561651990	624.380855568456	630.927980026210	544.861566391520	490.554230242417	229.231530353217	363.385752189844	579.316212272251	405.472701073596	585.221176097957	601.514513875634	726.414257965488	283.830136775857	617.608989538505	746.333090322318	545.749839276905	549.928058692720	997.714685115777	521.595025569111	561.268273818429	957.939342377193	260.621973053771	509.312310362171	380.450092463343	328.319406349668	553.342890284082	489.371735087097	336.435285501928	383.967926930983	993.246787410083	387.689101234771	496.971885871820	652.665322816018	252.110334955497	574.615680742328	601.503566842401	309.577832594168	
41	1.400000000000	650.027411598826	43.411335397344	367.266725470315	418.422901247930	1478.129131079408	355.392171251700	668.601989812163	60.846268796678	606.334449346253	458.496218277452	1457.787480148119	501.956424544461	513.968784297194	1066.421530487553	-44.388008463051	415.939847102158	322.122858221290	295.487631280130	317.489801694548	1130.554162781995	110.903335935477	490.647007192482	386.602924440672	642.656396427138	451.869822923162	1441.351098375101	209.255442092704	456.541588546739	59.108608826704	648.874361328334	531.501133944209	89.589094730860	389.492792949451	545.396774349040	112.434967640549	596.802228836158	370.254854940830	62.171878053317	587.744869494120	540.422648984485	689.922004727598	610.362048133971	363.447071285393	32.534535459265	437.777809024047	628.563971790745	510.050707466222	551.858966328164	434.810472718143	27.142697042230	364.973870249761	495.523790969807	1152.523084797086	673.934550832404	629.914778237066	1242.429277881071	480.061478862457	524.180102239683	238.911513442497	594.956408014867	559.845767954938	1388.640452587029	360.004940015956	624.716579134009	631.083907233212	544.841391345272	490.548914627424	229.242860121863	363.379166063325	579.088156570493	405.524239285584	585.440843215606	601.450675406421	726.441414435471	283.774165470141	617.808125226638	746.465184797041	545.673500697568	549.904894902062	997.740219593159	521.509992510612	561.134044459905	957.942561570905	260.543399803309	509.295853329023	380.450392540653	328.304784700174	553.327937206888	489.441941576672	336.424127904304	383.890722163234	993.266067613668	387.691711061796	496.946410253697	652.678964086257	252.085175120029	574.503439756640	601.570764155336	309.596781048728	
